<?xml version="1.0" standalone="no"?>
<!DOCTYPE svg PUBLIC "-//W3C//DTD SVG 20010904//EN"
 "http://www.w3.org/TR/2001/REC-SVG-20010904/DTD/svg10.dtd">
<svg version="1.0" xmlns="http://www.w3.org/2000/svg"
 width="500.000000pt" height="500.000000pt" viewBox="0 0 500.000000 500.000000"
 preserveAspectRatio="xMidYMid meet">

<g transform="translate(0.000000,500.000000) scale(0.100000,-0.100000)"
fill="#e7e7e7" stroke="none">
<path d="M2462 4258 c-7 -7 -12 -31 -12 -54 0 -37 -7 -52 -48 -101 -103 -123
-219 -212 -377 -289 -179 -87 -392 -131 -570 -117 -72 5 -84 9 -118 39 -42 38
-66 42 -90 16 -25 -28 -21 -48 19 -92 l36 -40 -4 -167 c-4 -141 -10 -184 -32
-268 -61 -224 -200 -446 -368 -586 -50 -42 -65 -49 -102 -49 -48 0 -66 -13
-66 -50 0 -37 18 -50 66 -50 35 0 51 -8 97 -45 170 -138 311 -365 374 -602 23
-86 26 -119 27 -265 l1 -167 -32 -33 c-37 -38 -42 -67 -15 -91 27 -25 42 -21
82 18 l36 36 141 0 c155 0 293 -22 406 -65 188 -71 371 -197 488 -338 42 -50
49 -65 49 -102 0 -49 13 -66 52 -66 33 0 48 24 48 78 0 33 8 48 48 93 120 134
218 210 367 284 178 89 404 135 580 120 72 -7 84 -11 118 -41 43 -39 59 -42
87 -14 28 28 25 44 -17 91 l-37 41 1 141 c1 153 16 248 60 377 65 190 187 369
342 502 46 39 63 48 94 48 53 0 77 15 77 48 0 39 -17 52 -66 52 -37 0 -52 7
-102 49 -146 122 -278 316 -342 505 -44 129 -60 232 -60 387 l0 139 35 39 c40
43 43 61 17 84 -28 25 -48 21 -92 -19 l-40 -37 -168 6 c-182 6 -276 25 -426
87 -150 63 -319 186 -423 308 -46 54 -53 68 -53 105 0 49 -13 67 -50 67 -14 0
-31 -5 -38 -12z m-12 -427 l0 -168 -54 -53 c-152 -148 -354 -233 -581 -246
l-100 -6 -114 115 -113 114 88 7 c321 25 618 153 814 351 30 30 56 55 57 55 2
0 3 -76 3 -169z m322 -21 c193 -130 399 -199 644 -216 l96 -7 -114 -114 -113
-115 -105 5 c-127 7 -233 33 -345 86 -98 46 -152 82 -229 152 l-56 51 0 170 0
170 68 -62 c37 -34 106 -88 154 -120z m852 -614 c55 -229 153 -410 317 -590
l51 -56 -170 0 -170 0 -51 56 c-71 78 -106 131 -156 237 -56 119 -75 196 -82
335 l-6 114 114 114 114 114 7 -110 c4 -61 18 -157 32 -214z m-1984 48 c0 -76
-20 -213 -41 -280 -41 -133 -127 -279 -220 -371 l-42 -43 -170 0 -170 0 70 73
c199 209 314 482 338 796 l7 94 114 -115 c106 -107 114 -117 114 -154z m810
102 l0 -163 -38 -26 c-65 -43 -155 -84 -227 -105 -135 -39 -117 -46 -249 87
l-118 118 83 12 c176 25 363 102 481 197 29 23 56 43 61 43 4 1 7 -73 7 -163z
m312 23 c87 -44 202 -80 315 -98 l103 -16 -119 -119 -120 -120 -86 22 c-93 23
-169 54 -252 105 l-53 31 0 168 0 167 78 -56 c42 -30 103 -68 134 -84z m-788
-449 c-31 -142 -64 -227 -126 -322 l-30 -48 -164 0 c-90 0 -164 2 -164 4 0 3
21 33 48 68 99 131 168 302 193 477 l12 83 118 -118 c103 -102 118 -121 113
-144z m1286 225 c0 -50 27 -178 56 -259 31 -89 92 -202 150 -277 l45 -59 -168
0 -169 0 -31 53 c-53 86 -90 177 -109 265 l-18 83 115 115 c62 62 117 114 121
114 5 0 8 -16 8 -35z m-810 -210 c0 -130 -1 -132 -93 -157 l-47 -12 -85 84
-84 84 80 23 c44 13 110 39 147 58 37 18 70 34 75 35 4 0 7 -52 7 -115z m153
90 c55 -31 200 -85 227 -85 11 0 20 -3 20 -8 0 -4 -35 -43 -79 -86 -77 -77
-79 -78 -118 -71 -22 3 -54 15 -71 25 l-32 20 0 115 c0 63 2 115 4 115 2 0 24
-11 49 -25z m-382 -380 c-23 -93 -27 -95 -161 -95 l-118 0 35 65 c37 70 83
196 83 229 0 16 20 1 86 -66 l87 -86 -12 -47z m725 148 c9 -32 35 -100 59
-151 l44 -93 -117 3 -117 3 -22 45 c-39 76 -33 94 54 182 42 43 79 76 81 74 2
-2 10 -30 18 -63z m-413 -82 c21 -11 60 -25 86 -32 48 -12 49 -13 60 -63 6
-28 20 -66 31 -84 l20 -32 -24 -45 c-13 -24 -27 -62 -31 -84 -6 -37 -10 -41
-43 -47 -20 -4 -58 -17 -84 -30 l-47 -24 -43 25 c-24 13 -62 27 -84 31 -40 6
-42 7 -53 58 -6 28 -20 66 -31 83 l-19 33 23 47 c14 27 27 65 31 85 6 33 11
37 43 43 27 4 123 45 127 54 1 1 18 -8 38 -18z m-1136 -315 c146 -160 227
-355 239 -576 l6 -105 -114 -113 -115 -114 -7 96 c-21 308 -135 577 -336 799
l-62 67 170 0 170 0 49 -54z m454 11 c61 -97 107 -215 123 -317 6 -34 2 -39
-112 -153 l-118 -118 -12 90 c-23 168 -85 323 -185 464 l-56 77 167 0 167 0
26 -43z m349 11 c10 -17 22 -49 25 -71 7 -39 6 -41 -71 -118 -43 -44 -82 -79
-86 -79 -5 0 -8 9 -8 20 0 27 -54 172 -85 227 -14 25 -25 47 -25 49 0 2 52 4
115 4 l115 0 20 -32z m848 25 c-2 -5 -17 -35 -34 -68 -17 -33 -42 -94 -55
-135 -12 -41 -26 -78 -29 -82 -3 -4 -41 28 -84 71 -77 77 -78 79 -71 118 3 22
15 54 25 71 l20 32 116 0 c63 0 114 -3 112 -7z m438 -25 c-53 -66 -127 -195
-157 -273 -33 -85 -69 -237 -69 -295 l0 -35 -120 120 c-136 136 -130 117 -88
260 22 77 55 148 100 213 l29 42 166 0 166 0 -27 -32z m444 -35 c-200 -220
-317 -496 -337 -794 l-6 -101 -115 114 -114 113 5 105 c12 225 100 428 255
593 l36 37 169 0 169 0 -62 -67z m-1523 -174 l43 -21 0 -120 c0 -66 -3 -118
-7 -116 -5 2 -35 17 -68 34 -61 32 -115 53 -194 74 l-44 12 79 79 c89 89 112
96 191 58z m365 -56 c43 -43 78 -81 78 -85 0 -5 -9 -8 -20 -8 -28 0 -175 -55
-225 -85 -24 -14 -46 -25 -49 -25 -3 0 -6 51 -6 114 0 125 1 126 66 150 65 24
74 20 156 -61z m-629 -189 c79 -18 173 -57 255 -107 l52 -31 0 -168 0 -167
-77 56 c-88 62 -179 110 -268 141 -67 23 -211 52 -256 52 -16 0 -29 3 -29 7 0
14 224 233 238 233 7 0 45 -7 85 -16z m920 -102 l119 -119 -94 -13 c-172 -23
-323 -84 -463 -186 l-70 -52 -3 160 c-2 137 0 164 14 179 40 45 288 146 364
148 8 1 68 -52 133 -117z m-1040 -256 c149 -44 280 -119 385 -219 l42 -41 0
-169 0 -169 -67 62 c-224 203 -497 318 -799 337 l-106 6 114 115 113 114 115
-5 c82 -4 140 -13 203 -31z m1376 -80 l113 -113 -99 -7 c-309 -23 -577 -137
-800 -341 l-63 -57 0 169 0 169 38 36 c171 163 393 254 622 257 l75 1 114
-114z"/>
</g>
</svg>
